<svg version="1.2" xmlns="http://www.w3.org/2000/svg" viewBox="0 0 110 110" width="110" height="110"><style>.a{fill:#529b80}</style><path fill-rule="evenodd" class="a" d="m19.8 71.6l9.5-28.5q0.2-0.9 0.8-1.5c0.6-0.6 1.4-1 2.5-1 1 0 2.3 0.2 3.9 0.9 1.9 0.8 4.2 2.2 6.9 4.1 0.4-1.1 0.7-2.4 1-3.8 0.9-5.1 0.4-11.4-5.2-16.5-0.8-0.8-0.8-2-0.1-2.8 0.7-0.8 1.9-0.8 2.7-0.1 6.9 6.2 7.5 13.9 6.4 20.1-0.4 2.1-0.9 4-1.5 5.6 3.3 2.6 7 5.9 10.7 9.5 8 8.1 14 16 16.1 20.9 0.6 1.6 0.9 2.9 0.9 3.8 0 1.1-0.4 2-1 2.6q-0.6 0.6-1.5 0.8l-60 19.9c-0.7 0.2-1.5 0-2-0.5-0.6-0.5-0.7-1.3-0.5-2l6.9-20.9q0 0 0-0.1l3.5-10.5q0 0 0 0zm3.1 3.1l-2.3 6.8c6.6 2.4 14 5.5 21.8 9.9l10.4-3.5c-11.1-6.5-21.3-10.6-29.9-13.2zm34.8 11.6l7.2-2.4c-4.9-2.7-11.8-8.1-18.8-15.1-6.9-6.9-12.4-13.9-15-18.7l-6.9 20.8c9.5 3 21 7.7 33.5 15.4zm-15.8-37c-2.7-1.9-5.1-3.4-7-4.2q-0.9-0.4-1.7-0.6-0.1 0-0.2 0 0 0.1 0.1 0.2 0 0.1 0 0.3 0 0 0 0.1 0.1 0.3 0.3 0.6 0.1 0.4 0.2 0.7 0.1 0.2 0.2 0.4 0.1 0.3 0.3 0.6c2.3 4.6 7.7 11.6 14.8 18.7 7.1 7 14 12.5 18.7 14.8q0.3 0.2 0.6 0.3 0.2 0.1 0.4 0.2 0.3 0.1 0.6 0.2 0.4 0.2 0.7 0.2 0.1 0 0.1 0.1 0.1 0 0.3 0 0.1 0 0.2 0 0-0.1-0.1-0.1-0.1-0.8-0.5-1.8c-2-4.6-7.7-12-15.3-19.6-3.3-3.3-6.5-6.2-9.5-8.6-0.4 0.7-0.7 1.2-0.7 1.2-0.5 0.9-1.7 1.2-2.7 0.6-0.9-0.5-1.2-1.7-0.6-2.6 0 0 0.3-0.6 0.8-1.7zm-22.5 36l-5.1 15.3 23-7.6c-6.4-3.3-12.4-5.8-17.9-7.7zm41.1-36.7c-0.8 0.7-2 0.8-2.8 0-0.8-0.7-0.8-1.9 0-2.7 0 0 12.9-13.5 8.9-29.2-0.3-1 0.3-2.1 1.4-2.3 1-0.3 2.1 0.3 2.4 1.4 4.4 17.6-9.9 32.8-9.9 32.8zm15.9 27.3c-1 0.4-2.2-0.1-2.5-1.1-0.4-1.1 0.1-2.2 1.1-2.6 0 0 14.3-5.5 25.1 5.1 0.8 0.8 0.8 2 0 2.8-0.7 0.8-2 0.8-2.7 0-9-8.8-21-4.2-21-4.2zm-17-55.5c2.2 2.2 2.2 5.7 0 7.8-2.2 2.2-5.7 2.2-7.8 0-2.2-2.1-2.2-5.6 0-7.8 2.1-2.1 5.6-2.1 7.8 0zm-2.8 2.8c-0.6-0.7-1.6-0.7-2.3 0-0.6 0.6-0.6 1.6 0 2.3 0.7 0.6 1.7 0.6 2.3 0 0.7-0.7 0.7-1.7 0-2.3zm25.4 32.9c2.1 2.1 2.1 5.6 0 7.8-2.2 2.2-5.7 2.2-7.8 0-2.2-2.2-2.2-5.7 0-7.8 2.1-2.2 5.6-2.2 7.8 0zm-2.8 2.7c-0.6-0.6-1.6-0.6-2.3 0-0.6 0.7-0.6 1.7 0 2.3 0.7 0.7 1.7 0.7 2.3 0 0.7-0.6 0.7-1.6 0-2.3zm19.9-12.6c2.1 2.2 2.1 5.7 0 7.9-2.2 2.1-5.7 2.1-7.9 0-2.1-2.2-2.1-5.7 0-7.9 2.2-2.1 5.7-2.1 7.9 0zm-2.8 2.8c-0.6-0.6-1.7-0.6-2.3 0-0.6 0.6-0.6 1.7 0 2.3 0.6 0.6 1.7 0.6 2.3 0 0.6-0.6 0.6-1.7 0-2.3zm-6.2-33.1c2.2 2.2 2.2 5.7 0 7.8-2.1 2.2-5.6 2.2-7.8 0-2.1-2.1-2.1-5.6 0-7.8 2.2-2.1 5.7-2.1 7.8 0zm-2.7 2.8c-0.7-0.7-1.7-0.7-2.3 0-0.7 0.6-0.7 1.6 0 2.3 0.6 0.6 1.6 0.6 2.3 0 0.6-0.7 0.6-1.7 0-2.3zm-11.5 29.9c-0.8 0.8-2 0.8-2.8 0-0.7-0.8-0.7-2 0-2.8 0 0 11.9-11.7 25.8-10.5 1.1 0.1 1.9 1.1 1.8 2.2-0.1 1-1.1 1.8-2.2 1.7-12.2-1.1-22.6 9.4-22.6 9.4z"/></svg>