<svg width="21" height="21" viewBox="0 0 21 21" fill="none" xmlns="http://www.w3.org/2000/svg">
<path d="M14.9723 0.291929L13.0804 2.18504C12.9193 2.34626 12.9193 2.60766 13.0804 2.76888L18.031 7.72278C18.1922 7.88401 18.4534 7.88401 18.6145 7.72278L20.5063 5.82967C20.6675 5.66845 20.6675 5.40706 20.5063 5.24583L15.5557 0.291929C15.3946 0.130706 15.1334 0.130706 14.9723 0.291929Z" fill="white"/>
<path d="M0 16.6137V20.4009C0 20.5104 0.0434732 20.6154 0.120856 20.6928C0.198238 20.7703 0.303192 20.8138 0.412627 20.8138H4.19725C4.27884 20.8138 4.3586 20.7895 4.42644 20.7442C4.49428 20.6988 4.54716 20.6343 4.57838 20.5589C4.6096 20.4834 4.61777 20.4004 4.60186 20.3203C4.58595 20.2403 4.54666 20.1667 4.48897 20.1089L0.704355 16.3218C0.646648 16.2641 0.573133 16.2248 0.493102 16.2089C0.413072 16.1929 0.330121 16.2011 0.254734 16.2324C0.179347 16.2636 0.114909 16.3165 0.0695682 16.3844C0.024227 16.4523 1.74229e-05 16.5321 0 16.6137Z" fill="white"/>
<path d="M11.9127 3.35175L0.702494 14.5694C0.541377 14.7306 0.541377 14.992 0.702494 15.1532L5.65311 20.1072C5.81423 20.2684 6.07545 20.2684 6.23656 20.1072L17.4468 8.8895C17.6079 8.72827 17.6079 8.46688 17.4468 8.30565L12.4962 3.35175C12.335 3.19053 12.0738 3.19053 11.9127 3.35175Z" fill="white"/>
</svg>
