<svg width="21" height="21" viewBox="0 0 21 21" fill="none" xmlns="http://www.w3.org/2000/svg">
<g clip-path="url(#clip0_7_39)">
<path d="M17.264 0H6.44801C6.11702 0 5.79959 0.131572 5.56554 0.365773C5.3315 0.599974 5.20001 0.917619 5.20001 1.24883V1.6651H14.768C15.3195 1.66577 15.8481 1.88527 16.2381 2.27546C16.628 2.66565 16.8474 3.19467 16.848 3.74649V18.3162H17.264C17.595 18.3162 17.9124 18.1846 18.1465 17.9504C18.3805 17.7162 18.512 17.3985 18.512 17.0673V1.24883C18.512 0.917619 18.3805 0.599974 18.1465 0.365773C17.9124 0.131572 17.595 0 17.264 0Z" fill="white"/>
<path d="M5.61603 15.8185H12.688V17.4836H5.61603V15.8185Z" fill="white"/>
<path d="M5.61603 10.8232H12.688V12.4883H5.61603V10.8232Z" fill="white"/>
<path d="M8.52802 5.82788H12.688V7.49299H8.52802V5.82788Z" fill="white"/>
<path d="M14.768 2.49765H3.53602C3.20503 2.49765 2.8876 2.62922 2.65356 2.86342C2.41951 3.09762 2.28802 3.41527 2.28802 3.74648V19.565C2.28802 19.8962 2.41951 20.2138 2.65356 20.448C2.8876 20.6822 3.20503 20.8138 3.53602 20.8138H14.768C15.099 20.8138 15.4164 20.6822 15.6505 20.448C15.8845 20.2138 16.016 19.8962 16.016 19.565V3.74648C16.016 3.41527 15.8845 3.09762 15.6505 2.86342C15.4164 2.62922 15.099 2.49765 14.768 2.49765ZM13.52 17.8999C13.52 18.0103 13.4762 18.1162 13.3982 18.1942C13.3202 18.2723 13.2144 18.3161 13.104 18.3161H5.20002C5.08969 18.3161 4.98388 18.2723 4.90587 18.1942C4.82785 18.1162 4.78402 18.0103 4.78402 17.8999V15.4022C4.78402 15.2918 4.82785 15.1859 4.90587 15.1079C4.98388 15.0298 5.08969 14.9859 5.20002 14.9859H13.104C13.2144 14.9859 13.3202 15.0298 13.3982 15.1079C13.4762 15.1859 13.52 15.2918 13.52 15.4022V17.8999ZM13.52 12.9046C13.52 13.015 13.4762 13.1208 13.3982 13.1989C13.3202 13.277 13.2144 13.3208 13.104 13.3208H5.20002C5.08969 13.3208 4.98388 13.277 4.90587 13.1989C4.82785 13.1208 4.78402 13.015 4.78402 12.9046V10.4069C4.78402 10.2965 4.82785 10.1906 4.90587 10.1125C4.98388 10.0345 5.08969 9.99062 5.20002 9.99062H13.104C13.2144 9.99062 13.3202 10.0345 13.3982 10.1125C13.4762 10.1906 13.52 10.2965 13.52 10.4069V12.9046ZM13.52 7.90924C13.52 8.01964 13.4762 8.12553 13.3982 8.20359C13.3202 8.28166 13.2144 8.32552 13.104 8.32552H8.11202C8.00169 8.32552 7.89588 8.28166 7.81787 8.20359C7.73985 8.12553 7.69602 8.01964 7.69602 7.90924V5.41158C7.69602 5.30118 7.73985 5.1953 7.81787 5.11723C7.89588 5.03916 8.00169 4.99531 8.11202 4.99531H13.104C13.2144 4.99531 13.3202 5.03916 13.3982 5.11723C13.4762 5.1953 13.52 5.30118 13.52 5.41158V7.90924Z" fill="white"/>
</g>
<defs>
<clipPath id="clip0_7_39">
<rect width="20.8" height="20.8138" fill="white"/>
</clipPath>
</defs>
</svg>
