<svg width="20" height="21" viewBox="0 0 20 21" fill="none" xmlns="http://www.w3.org/2000/svg">
<path d="M17.6 10.92C17.4939 10.92 17.3922 10.8758 17.3172 10.797C17.2421 10.7182 17.2 10.6114 17.2 10.5C17.2 10.3886 17.2421 10.2818 17.3172 10.203C17.3922 10.1242 17.4939 10.08 17.6 10.08H20V7.98C20 7.64583 19.8736 7.32534 19.6485 7.08905C19.4235 6.85275 19.1183 6.72 18.8 6.72H7.6C7.49391 6.72 7.39217 6.67575 7.31716 6.59698C7.24214 6.51822 7.2 6.41139 7.2 6.3V1.26C7.2 0.925827 7.07357 0.605341 6.84853 0.369045C6.62348 0.132749 6.31826 0 6 0H4V2.52C4 2.63139 3.95786 2.73822 3.88284 2.81699C3.80783 2.89575 3.70609 2.94 3.6 2.94C3.49391 2.94 3.39217 2.89575 3.31716 2.81699C3.24214 2.73822 3.2 2.63139 3.2 2.52V0H1.2C0.88174 0 0.576515 0.132749 0.351472 0.369045C0.126428 0.605341 0 0.925827 0 1.26V13.02C0 13.3542 0.126428 13.6747 0.351472 13.911C0.576515 14.1472 0.88174 14.28 1.2 14.28H6C6.10609 14.28 6.20783 14.3242 6.28284 14.403C6.35786 14.4818 6.4 14.5886 6.4 14.7V19.74C6.4 20.0742 6.52643 20.3947 6.75147 20.631C6.97652 20.8672 7.28174 21 7.6 21H9.6V18.48C9.6 18.3686 9.64214 18.2618 9.71716 18.183C9.79217 18.1042 9.89391 18.06 10 18.06C10.1061 18.06 10.2078 18.1042 10.2828 18.183C10.3579 18.2618 10.4 18.3686 10.4 18.48V21H12.4C12.7183 21 13.0235 20.8672 13.2485 20.631C13.4736 20.3947 13.6 20.0742 13.6 19.74V14.7C13.6 14.5886 13.6421 14.4818 13.7172 14.403C13.7922 14.3242 13.8939 14.28 14 14.28H18.8C19.1183 14.28 19.4235 14.1472 19.6485 13.911C19.8736 13.6747 20 13.3542 20 13.02V10.92H17.6ZM3.6 7.56C3.49391 7.56 3.39217 7.51575 3.31716 7.43699C3.24214 7.35822 3.2 7.25139 3.2 7.14V5.04C3.2 4.92861 3.24214 4.82178 3.31716 4.74301C3.39217 4.66425 3.49391 4.62 3.6 4.62C3.70609 4.62 3.80783 4.66425 3.88284 4.74301C3.95786 4.82178 4 4.92861 4 5.04V7.14C4 7.25139 3.95786 7.35822 3.88284 7.43699C3.80783 7.51575 3.70609 7.56 3.6 7.56ZM6.4 10.92H4.4C4.29391 10.92 4.19217 10.8758 4.11716 10.797C4.04214 10.7182 4 10.6114 4 10.5C4 10.3886 4.04214 10.2818 4.11716 10.203C4.19217 10.1242 4.29391 10.08 4.4 10.08H6.4C6.50609 10.08 6.60783 10.1242 6.68284 10.203C6.75786 10.2818 6.8 10.3886 6.8 10.5C6.8 10.6114 6.75786 10.7182 6.68284 10.797C6.60783 10.8758 6.50609 10.92 6.4 10.92ZM10.4 15.96C10.4 16.0714 10.3579 16.1782 10.2828 16.257C10.2078 16.3358 10.1061 16.38 10 16.38C9.89391 16.38 9.79217 16.3358 9.71716 16.257C9.64214 16.1782 9.6 16.0714 9.6 15.96V13.86C9.6 13.7486 9.64214 13.6418 9.71716 13.563C9.79217 13.4842 9.89391 13.44 10 13.44C10.1061 13.44 10.2078 13.4842 10.2828 13.563C10.3579 13.6418 10.4 13.7486 10.4 13.86V15.96ZM10.8 10.92H8.8C8.69391 10.92 8.59217 10.8758 8.51716 10.797C8.44214 10.7182 8.4 10.6114 8.4 10.5C8.4 10.3886 8.44214 10.2818 8.51716 10.203C8.59217 10.1242 8.69391 10.08 8.8 10.08H10.8C10.9061 10.08 11.0078 10.1242 11.0828 10.203C11.1579 10.2818 11.2 10.3886 11.2 10.5C11.2 10.6114 11.1579 10.7182 11.0828 10.797C11.0078 10.8758 10.9061 10.92 10.8 10.92ZM15.2 10.92H13.2C13.0939 10.92 12.9922 10.8758 12.9172 10.797C12.8421 10.7182 12.8 10.6114 12.8 10.5C12.8 10.3886 12.8421 10.2818 12.9172 10.203C12.9922 10.1242 13.0939 10.08 13.2 10.08H15.2C15.3061 10.08 15.4078 10.1242 15.4828 10.203C15.5579 10.2818 15.6 10.3886 15.6 10.5C15.6 10.6114 15.5579 10.7182 15.4828 10.797C15.4078 10.8758 15.3061 10.92 15.2 10.92Z" fill="white" fill-opacity="0.97"/>
</svg>
