<svg width="21" height="21" viewBox="0 0 21 21" fill="none" xmlns="http://www.w3.org/2000/svg">
<g clip-path="url(#clip0_7_52)">
<path d="M17.875 3.09178L14.5438 0.365845L15.2365 3.65865L17.875 3.09178Z" fill="white"/>
<path d="M15.0418 4.52157C14.9889 4.53282 14.9344 4.53352 14.8812 4.52363C14.828 4.51374 14.7773 4.49346 14.732 4.46395C14.6867 4.43444 14.6476 4.39627 14.617 4.35162C14.5864 4.30698 14.5649 4.25673 14.5537 4.20375L13.7046 0.203247H3.79417C3.46669 0.203247 3.15261 0.333535 2.92105 0.565448C2.68948 0.797362 2.55939 1.1119 2.55939 1.43988V19.5772C2.55939 19.9051 2.68948 20.2197 2.92105 20.4516C3.15261 20.6835 3.46669 20.8138 3.79417 20.8138H16.9652C17.2927 20.8138 17.6068 20.6835 17.8384 20.4516C18.0699 20.2197 18.2 19.9051 18.2 19.5772V3.84925L15.0418 4.52157ZM4.61736 3.50094H12.8493C12.9584 3.50094 13.0631 3.54436 13.1403 3.62167C13.2175 3.69897 13.2609 3.80382 13.2609 3.91315C13.2609 4.02247 13.2175 4.12732 13.1403 4.20462C13.0631 4.28193 12.9584 4.32536 12.8493 4.32536H4.61736C4.5082 4.32536 4.40351 4.28193 4.32632 4.20462C4.24913 4.12732 4.20577 4.02247 4.20577 3.91315C4.20577 3.80382 4.24913 3.69897 4.32632 3.62167C4.40351 3.54436 4.5082 3.50094 4.61736 3.50094ZM4.61736 6.79862H14.0841C14.1932 6.79862 14.2979 6.84205 14.3751 6.91936C14.4523 6.99666 14.4957 7.10151 14.4957 7.21083C14.4957 7.32016 14.4523 7.42501 14.3751 7.50231C14.2979 7.57962 14.1932 7.62304 14.0841 7.62304H4.61736C4.5082 7.62304 4.40351 7.57962 4.32632 7.50231C4.24913 7.42501 4.20577 7.32016 4.20577 7.21083C4.20577 7.10151 4.24913 6.99666 4.32632 6.91936C4.40351 6.84205 4.5082 6.79862 4.61736 6.79862ZM7.91013 17.5161H4.61736C4.5082 17.5161 4.40351 17.4727 4.32632 17.3954C4.24913 17.3181 4.20577 17.2132 4.20577 17.1039C4.20577 16.9946 4.24913 16.8897 4.32632 16.8124C4.40351 16.7351 4.5082 16.6917 4.61736 16.6917H7.91013C8.01929 16.6917 8.12398 16.7351 8.20117 16.8124C8.27836 16.8897 8.32172 16.9946 8.32172 17.1039C8.32172 17.2132 8.27836 17.3181 8.20117 17.3954C8.12398 17.4727 8.01929 17.5161 7.91013 17.5161ZM4.20577 13.8062C4.20577 13.6969 4.24913 13.592 4.32632 13.5147C4.40351 13.4374 4.5082 13.394 4.61736 13.394H14.0841C14.1932 13.394 14.2979 13.4374 14.3751 13.5147C14.4523 13.592 14.4957 13.6969 14.4957 13.8062C14.4957 13.9155 14.4523 14.0204 14.3751 14.0977C14.2979 14.175 14.1932 14.2184 14.0841 14.2184H4.61736C4.5082 14.2184 4.40351 14.175 4.32632 14.0977C4.24913 14.0204 4.20577 13.9155 4.20577 13.8062ZM16.0214 15.3343L12.7287 18.632C12.6515 18.7092 12.5468 18.7527 12.4377 18.7527C12.3285 18.7527 12.2239 18.7092 12.1467 18.632L10.5003 16.9831C10.4253 16.9054 10.3838 16.8013 10.3848 16.6932C10.3857 16.5851 10.429 16.4817 10.5053 16.4053C10.5816 16.3288 10.6849 16.2855 10.7928 16.2846C10.9007 16.2836 11.0047 16.3252 11.0823 16.4003L12.4377 17.7577L15.4394 14.7514C15.5171 14.6763 15.621 14.6348 15.729 14.6357C15.8369 14.6367 15.9401 14.68 16.0164 14.7564C16.0927 14.8329 16.136 14.9362 16.137 15.0443C16.1379 15.1524 16.0964 15.2565 16.0214 15.3343ZM16.142 10.9207H4.61736C4.5082 10.9207 4.40351 10.8773 4.32632 10.8C4.24913 10.7227 4.20577 10.6178 4.20577 10.5085C4.20577 10.3992 4.24913 10.2943 4.32632 10.217C4.40351 10.1397 4.5082 10.0963 4.61736 10.0963H16.142C16.2512 10.0963 16.3559 10.1397 16.4331 10.217C16.5103 10.2943 16.5536 10.3992 16.5536 10.5085C16.5536 10.6178 16.5103 10.7227 16.4331 10.8C16.3559 10.8773 16.2512 10.9207 16.142 10.9207Z" fill="white"/>
</g>
<defs>
<clipPath id="clip0_7_52">
<rect width="20.8" height="20.8138" fill="white"/>
</clipPath>
</defs>
</svg>
